<svg xmlns="http://www.w3.org/2000/svg" viewBox="0 0 512 512" fill="none">
  <defs>
    <linearGradient id="g" x1="0" y1="0" x2="1" y2="1">
      <stop offset="0" stop-color="#1d7bff"/>
      <stop offset="1" stop-color="#0052cc"/>
    </linearGradient>
  </defs>
  <rect width="512" height="512" fill="url(#g)"/>
  <path d="M256 160c-9 0-16 7-16 16v16h-16a48 48 0 1 0 0 96h32v48h-48a16 16 0 1 0 0 32h32v16a16 16 0 1 0 32 0v-16h16a48 48 0 1 0 0-96h-32v-48h48a16 16 0 1 0 0-32h-32v-16c0-9-7-16-16-16zm-16 64v48h-16a16 16 0 1 1 0-32h16zm32 80h16a16 16 0 1 1 0 32h-16z" fill="#fff"/>
</svg>
