<svg xmlns="http://www.w3.org/2000/svg" viewBox="0 0 512 512" fill="none">
  <defs>
    <linearGradient id="g" x1="0" y1="0" x2="1" y2="1">
      <stop offset="0" stop-color="#1d7bff"/>
      <stop offset="1" stop-color="#0052cc"/>
    </linearGradient>
  </defs>
  <rect width="512" height="512" rx="120" fill="url(#g)"/>
  <path d="M256 96c-12 0-22 10-22 22v22h-22a66 66 0 1 0 0 132h44v66h-66a22 22 0 1 0 0 44h44v22a22 22 0 1 0 44 0v-22h22a66 66 0 1 0 0-132h-44v-66h66a22 22 0 1 0 0-44h-44v-22c0-12-10-22-22-22zm-22 88v66h-22a22 22 0 1 1 0-44h22zm44 110h22a22 22 0 1 1 0 44h-22z" fill="#fff"/>
</svg>
